<svg id="Capa_1" enable-background="new 0 0 511.316 511.316" height="512" viewBox="0 0 511.316 511.316" width="512" xmlns="http://www.w3.org/2000/svg"><g><g><g fill="#fd8087"><path d="m416.368 185.794-45.47-37.28-36.229 43.191 3.346 146.281 32.882 16.158h34.81c9.29 0 16.82-7.53 16.82-16.81v-138.54c.001-5.04-2.259-9.81-6.159-13z"/><path d="m140.418 148.514-45.47 37.28c-3.9 3.19-6.16 7.96-6.16 13v138.54c0 9.28 7.53 16.81 16.82 16.81h34.81l45.478-21.416v-178.788z"/><path d="m263.088 8.574c-2.429-.715-4.93-1.07-7.43-1.07s-5 .36-7.43 1.07c-16.65 4.89-30.69 14.98-40.58 28.19-6.05 8.08-10.54 17.33-13.11 27.28l19.589 23.071h92.284l10.367-23.071c-6.763-26.186-26.827-47.566-53.69-55.47z"/></g><path d="m241.981 65.999c2.57-9.95 7.06-19.2 13.11-27.28 6.854-9.154 15.703-16.806 26.03-22.271-5.56-3.317-11.592-5.986-18.017-7.875-2.43-.71-4.93-1.07-7.43-1.07s-5 .36-7.43 1.07c-16.65 4.89-30.69 14.98-40.58 28.19-6.05 8.08-10.54 17.33-13.11 27.28l19.589 23.071h45.766z" fill="#fe646f"/><path d="m370.898 148.514v205.63h-230.48v-205.63l51.63-42.32 32.14-23.95h63.67l31.41 23.95z" fill="#e5e1e5"/><g><path d="m373.378 338.234v42.85c0 3.86-3.13 6.98-6.98 6.98h-221.48c-3.85 0-6.98-3.12-6.98-6.98v-42.85c0-1.67.6-3.28 1.68-4.55l52.43-61.16v-188.88c0-6.73.86-13.31 2.49-19.6h122.24c1.63 6.29 2.49 12.87 2.49 19.6v188.88l52.43 61.16c1.08 1.27 1.68 2.88 1.68 4.55z" fill="#f9f7f8"/><path d="m263.681 398.628h-17.046c-3.724 0-6.742-3.019-6.742-6.742v-114.031c0-3.724 3.019-6.742 6.742-6.742h17.046c3.724 0 6.742 3.019 6.742 6.742v114.031c0 3.723-3.018 6.742-6.742 6.742z" fill="#e5e1e5"/><path d="m333.942 348.169h-17.045c-10.887 0-19.743 8.856-19.743 19.742v20.153h56.531v-20.153c0-10.885-8.856-19.742-19.743-19.742z" fill="#efedef"/><path d="m316.897 412.145h17.046c3.724 0 6.742-3.019 6.742-6.742v-37.491c0-3.724-3.019-6.742-6.742-6.742h-17.046c-3.724 0-6.742 3.019-6.742 6.742v37.491c0 3.723 3.018 6.742 6.742 6.742z" fill="#e5e1e5"/><path d="m260.415 86.102c-5.492-.552-10.813-.134-15.821 1.093-2.331.571-4.588-1.15-4.588-3.55 0-6.73.86-13.31 2.49-19.6h-47.958c-1.63 6.29-2.49 12.87-2.49 19.6v188.88l-52.43 61.16c-1.08 1.27-1.68 2.88-1.68 4.55v42.85c0 3.855 3.125 6.98 6.98 6.98h69.243v-20.153c0-10.942-8.902-19.805-19.859-19.742-4.662.027-8.406-3.861-8.406-8.523v-1.412c0-1.67.6-3.28 1.68-4.55l42.297-49.34c6.539-7.627 10.133-17.343 10.133-27.389v-75.607c0-2.395 2.249-4.121 4.575-3.551 3.551.871 7.26 1.335 11.077 1.335 26.823 0 48.43-22.762 46.518-49.985-1.577-22.454-19.364-40.796-41.761-43.046z" fill="#efedef"/><circle cx="255.658" cy="132.497" fill="#99e6fc" r="36.635"/><path d="m242.837 132.497c0-16.063 10.358-29.708 24.744-34.651-3.734-1.283-7.753-1.984-11.923-1.984-20.233 0-36.635 16.402-36.635 36.635s16.402 36.635 36.635 36.635c4.17 0 8.201-.705 11.936-1.988-14.386-4.943-24.757-18.584-24.757-34.647z" fill="#62dbfb"/><g fill="#fee97d"><path d="m198.691 443.343v4.243c0 8.522 5.18 16.188 13.086 19.367 11.629 4.676 19.248 15.952 19.248 28.487v.002c0 4.625-3.75 8.375-8.375 8.374l-136.159-.009c-4.625 0-8.374-3.749-8.374-8.374v-1.444c0-15.879 12.872-28.751 28.751-28.751h41.238c10.358 0 18.756-8.397 18.756-18.756v-3.139c0-2.455 1.99-4.444 4.444-4.444h22.94c2.455-.001 4.445 1.989 4.445 4.444z"/><path d="m433.198 495.43v-1.441c0-15.879-12.872-28.751-28.751-28.751h-41.238c-10.358 0-18.756-8.397-18.756-18.756v-2.288c0-2.925-2.371-5.295-5.295-5.295h-21.237c-2.925 0-5.295 2.371-5.295 5.295v3.392c0 8.522-5.18 16.188-13.086 19.367-11.629 4.676-19.248 15.952-19.248 28.487 0 4.626 3.751 8.377 8.377 8.377l136.155-.009c4.624-.002 8.374-3.752 8.374-8.378z"/></g></g><path d="m194.419 412.145h-17.046c-3.724 0-6.742-3.019-6.742-6.742v-37.491c0-3.724 3.019-6.742 6.742-6.742h17.046c3.724 0 6.742 3.019 6.742 6.742v37.491c.001 3.723-3.018 6.742-6.742 6.742z" fill="#e5e1e5"/></g></g><g><path d="m348.185 405.402v-9.835h18.209c7.985 0 14.481-6.496 14.481-14.48v-19.44h24.832c13.408 0 24.317-10.909 24.317-24.317v-138.533c0-7.314-3.244-14.169-8.901-18.807l-94.357-77.343v-19.006c0-18.666-5.912-36.432-17.096-51.376s-26.562-25.625-44.47-30.889c-6.243-1.834-12.842-1.834-19.083 0-17.909 5.264-33.287 15.945-44.471 30.889-11.185 14.945-17.096 32.71-17.096 51.376v19.007l-94.357 77.342c-5.657 4.637-8.902 11.492-8.902 18.807v138.532c0 13.408 10.909 24.317 24.317 24.317h24.832v19.44c0 7.984 6.496 14.48 14.481 14.48h18.21v9.835c0 7.854 6.389 14.243 14.242 14.243h17.046c7.853 0 14.242-6.389 14.242-14.243v-9.835h24.231c1.629 6.071 7.164 10.561 13.743 10.561h17.045c6.578 0 12.114-4.489 13.743-10.561h25.23v9.835c0 7.854 6.39 14.243 14.243 14.243h17.045c7.855.001 14.244-6.388 14.244-14.242zm15.21-253.335v126.664c0 4.142 3.357 7.5 7.5 7.5s7.5-3.358 7.5-7.5v-114.368l33.219 27.229c2.168 1.777 3.411 4.403 3.411 7.206v138.532c0 5.137-4.18 9.317-9.317 9.317h-24.832v-8.415c0-3.453-1.237-6.8-3.486-9.424l-50.623-59.061v-147.704zm-113.048-136.3c3.475-1.021 7.148-1.021 10.623 0 20.809 6.116 37.243 21.493 45.321 40.78h-101.265c8.078-19.287 24.511-34.664 45.321-40.78zm-56.685 388.878h-15.53v-35.976h15.53zm84.262-24.078v-29.716c0-4.142-3.357-7.5-7.5-7.5s-7.5 3.358-7.5 7.5v40.276h-15.531v-112.515h15.531v40.276c0 4.142 3.357 7.5 7.5 7.5s7.5-3.358 7.5-7.5v-41.034c0-7.854-6.39-14.243-14.243-14.243h-17.045c-7.854 0-14.243 6.389-14.243 14.243v102.712h-23.731v-12.656c0-7.853-6.389-14.242-14.242-14.242h-17.046c-7.853 0-14.242 6.389-14.242 14.242v12.656h-17.692v-42.144l52.304-61.021c1.165-1.359 1.806-3.09 1.806-4.881v-47.228c0-4.142-3.358-7.5-7.5-7.5s-7.5 3.358-7.5 7.5v44.453l-50.624 59.06c-2.248 2.623-3.486 5.97-3.486 9.424v8.415h-24.832c-5.137 0-9.317-4.18-9.317-9.317v-138.53c0-2.803 1.243-5.429 3.411-7.206l33.219-27.229v114.369c0 4.142 3.358 7.5 7.5 7.5s7.5-3.358 7.5-7.5v-126.664l36.629-30.024v71.288c0 4.142 3.358 7.5 7.5 7.5s7.5-3.358 7.5-7.5v-109.69c0-4.101.371-8.142 1.067-12.094h110.083c.696 3.952 1.067 7.993 1.067 12.094v188.88c0 1.791.641 3.521 1.806 4.881l52.304 61.021v42.144h-17.69v-12.656c0-7.853-6.39-14.242-14.243-14.242h-17.045c-7.854 0-14.243 6.389-14.243 14.242v12.656zm55.261 24.078h-15.531v-35.976h15.531z"/><path d="m290.096 117.896c-4.061.815-6.691 4.769-5.876 8.83.381 1.892.573 3.834.573 5.771 0 16.065-13.069 29.135-29.135 29.135s-29.135-13.07-29.135-29.135 13.07-29.135 29.135-29.135c4.54 0 8.895 1.02 12.942 3.032 3.709 1.843 8.21.331 10.054-3.378s.331-8.21-3.378-10.054c-6.141-3.052-12.741-4.6-19.618-4.6-24.336 0-44.135 19.799-44.135 44.135s19.799 44.135 44.135 44.135 44.135-19.799 44.135-44.135c0-2.927-.292-5.863-.866-8.726-.816-4.06-4.763-6.691-8.831-5.875z"/><path d="m166.863 431.398c-4.142 0-7.5 3.358-7.5 7.5v7.583c0 6.207-5.049 11.256-11.256 11.256h-41.238c-19.989 0-36.251 16.262-36.251 36.251v9.817c0 4.142 3.358 7.5 7.5 7.5s7.5-3.358 7.5-7.5v-9.817c0-11.718 9.533-21.251 21.251-21.251h41.238c14.478 0 26.256-11.778 26.256-26.256v-7.583c0-4.142-3.358-7.5-7.5-7.5z"/><path d="m214.576 459.994c-5.094-2.048-8.385-6.919-8.385-12.409v-8.687c0-4.142-3.358-7.5-7.5-7.5s-7.5 3.358-7.5 7.5v8.687c0 11.647 6.982 21.98 17.789 26.326 8.836 3.553 14.546 12.004 14.546 21.528v8.377c0 4.142 3.358 7.5 7.5 7.5s7.5-3.358 7.5-7.5v-8.377c0-15.681-9.401-29.594-23.95-35.445z"/><path d="m404.447 457.738h-41.238c-6.206 0-11.255-5.049-11.255-11.256v-7.583c0-4.142-3.357-7.5-7.5-7.5s-7.5 3.358-7.5 7.5v7.583c0 14.478 11.778 26.256 26.255 26.256h41.238c11.718 0 21.251 9.533 21.251 21.251v9.817c0 4.142 3.357 7.5 7.5 7.5s7.5-3.358 7.5-7.5v-9.817c0-19.989-16.262-36.251-36.251-36.251z"/><path d="m312.625 431.398c-4.143 0-7.5 3.358-7.5 7.5v8.687c0 5.49-3.291 10.361-8.384 12.409-14.549 5.85-23.95 19.763-23.95 35.445v8.377c0 4.142 3.357 7.5 7.5 7.5s7.5-3.358 7.5-7.5v-8.377c0-9.525 5.71-17.975 14.546-21.528 10.806-4.345 17.788-14.679 17.788-26.326v-8.687c0-4.142-3.357-7.5-7.5-7.5z"/></g></svg>